<svg viewBox="0 0 50 50" fill="none" xmlns="http://www.w3.org/2000/svg">
<path d="M23.9999 49.9802C20.1743 49.8297 16.5696 48.8196 13.3735 47.1376L17.3789 40.2001C19.3904 41.2105 21.63 41.8335 23.9999 41.9709V49.9802Z" fill="#6A7B95"/>
<path d="M3.86383 38.3575C5.84795 41.4905 8.50945 44.1519 11.6424 46.136L15.6478 39.1985C13.723 37.9282 12.0717 36.2769 10.8013 34.3521L3.86383 38.3575Z" fill="#6A7B95"/>
<path d="M2.86222 36.6264C1.18019 33.4303 0.170024 29.8255 0.0195312 25.9999H8.02882C8.1663 28.3698 8.78927 30.6095 9.79977 32.621L2.86222 36.6264Z" fill="#6A7B95"/>
<path d="M15.6475 10.8014C13.7228 12.0717 12.0716 13.7229 10.8013 15.6476L3.86378 11.6423C5.84784 8.50938 8.50925 5.84795 11.6421 3.86386L15.6475 10.8014Z" fill="#6A7B95"/>
<path d="M13.3732 2.86224C16.5694 1.18018 20.1742 0.169987 23.9999 0.0194931V8.02878C21.6299 8.16626 19.3901 8.78926 17.3786 9.79979L13.3732 2.86224Z" fill="#6A7B95"/>
<path d="M8.02882 23.9999C8.16629 21.6299 8.78925 19.3902 9.79972 17.3788L2.86218 13.3734C1.18018 16.5695 0.170023 20.1742 0.0195312 23.9999H8.02882Z" fill="#6A7B95"/>
<path opacity="0.7" d="M36.6264 47.1376C33.4303 48.8196 29.8256 49.8297 26 49.9802V41.9709C28.3699 41.8335 30.6095 41.2105 32.621 40.2001L36.6264 47.1376Z" fill="#6A7B95"/>
<path opacity="0.4" d="M34.3516 39.1985C36.2764 37.9281 37.9276 36.2769 39.198 34.3521L46.1355 38.3575C44.1514 41.4904 41.4899 44.1519 38.3569 46.136L34.3516 39.1985Z" fill="#6A7B95"/>
<path opacity="0.2" d="M41.9702 25.9997C41.8327 28.3697 41.2097 30.6094 40.1992 32.6208L47.1368 36.6262C48.8188 33.4301 49.829 29.8253 49.9795 25.9997H41.9702Z" fill="#6A7B95"/>
</svg>
